<svg xmlns="http://www.w3.org/2000/svg" viewBox="0 0 86 101" width="86" height="101">
	<style>
		tspan { white-space:pre }
		.shp0 { fill: #ffffff } 
	</style>
	<g id="noun_eco_3264997 1">
		<path id="Vector" class="shp0" d="M75.42 68.57C75.59 68.68 75.79 68.73 75.99 68.73C76.31 68.73 76.63 68.58 76.83 68.31C81.39 62.07 83.8 54.77 83.8 47.2C83.8 26.38 65.5 9.44 43 9.44C33.67 9.44 24.62 12.41 17.39 17.82L17.37 10.38C17.37 9.86 16.91 9.44 16.35 9.44L16.35 9.44C15.79 9.44 15.33 9.87 15.33 10.39L15.35 19.83C15.36 20.35 15.81 20.77 16.37 20.77L26.54 20.79L26.54 20.79C27.1 20.79 27.56 20.37 27.56 19.85C27.56 19.33 27.1 18.91 26.54 18.9L19.2 18.89C25.98 14 34.36 11.33 43 11.33C64.37 11.33 81.76 27.42 81.76 47.2C81.76 54.39 79.47 61.32 75.14 67.26C74.83 67.69 74.95 68.28 75.42 68.57Z" />
		<path id="Vector_2" class="shp0" d="M10.58 25.83C10.12 25.54 9.48 25.66 9.17 26.09C4.61 32.33 2.2 39.63 2.2 47.2C2.2 68.02 20.5 84.96 43 84.96C52.32 84.96 61.32 82.02 68.55 76.64L68.56 84.02C68.57 84.54 69.02 84.96 69.58 84.96L69.59 84.96C70.15 84.96 70.61 84.54 70.6 84.01L70.58 74.55C70.58 74.03 70.13 73.61 69.56 73.61L59.4 73.61C58.83 73.61 58.38 74.03 58.38 74.55C58.38 75.07 58.83 75.5 59.4 75.5L66.81 75.5C60.02 80.39 51.66 83.07 43 83.07C21.63 83.07 4.24 66.98 4.24 47.2C4.24 40.01 6.53 33.08 10.86 27.14C11.17 26.71 11.05 26.12 10.58 25.83Z" />
		<path id="Vector_3" fill-rule="evenodd" class="shp0" d="M41.95 71.17L41.96 65.25C37.71 65.01 33.75 63.33 30.72 60.43C27.46 57.3 25.66 53.13 25.66 48.71C25.67 36.83 41.62 22.27 42.3 21.66C42.69 21.3 43.31 21.3 43.71 21.65C44.39 22.24 60.34 36.34 60.34 48.7C60.33 57.52 53.09 64.75 44 65.25L43.99 71.17C43.99 71.7 43.53 72.12 42.97 72.12C42.97 72.12 42.97 72.12 42.97 72.12C42.41 72.12 41.95 71.69 41.95 71.17ZM28.51 44.04L41.96 55.87L41.97 44.29L32.55 36.02C30.85 38.6 29.37 41.34 28.51 44.04ZM53.54 35.93L44.01 44.31L44 55.89L57.53 44C56.69 41.26 55.23 38.5 53.54 35.93ZM41.99 24.68C40 26.66 36.63 30.23 33.67 34.39L41.97 41.69L41.99 24.68ZM58.3 48.7C58.3 47.86 58.21 47 58.05 46.14L44 58.5L44 63.36C51.97 62.86 58.29 56.48 58.3 48.7ZM44.03 24.63L44.01 41.71L52.43 34.31C49.44 30.12 46.03 26.58 44.03 24.63ZM41.96 63.36L41.96 58.47L27.96 46.16C27.8 47.03 27.7 47.88 27.7 48.71C27.7 52.64 29.3 56.34 32.19 59.12C34.83 61.65 38.27 63.13 41.96 63.36Z" />
	</g>
</svg>